# xmcd CD database file
#
# Track frame offsets:
#	150
#	23003
#	54513
#	72703
#	92264
#	117574
#	136059
#	161385
#	191718
#
# Disc length: 2948 seconds
#
# Revision: 0
# Processed by: cddbd v1.5.2PL0 Copyright (c) Steve Scherf et al.
# Submitted via: CDex 1.70beta2
#
DISCID=740b8209
DTITLE=Hennessy brothers - Chunky
DYEAR=2008
DGENRE=Jazz
TTITLE0=Have Another Hot Dog
TTITLE1=Portrait
TTITLE2=Fathers and Sons
TTITLE3=Waltz for Camille
TTITLE4=Chant
TTITLE5=Odds and Ends
TTITLE6=Angles
TTITLE7=Shades of Grey
TTITLE8=La Muerta De Suenos
EXTD=YEAR: 2008
EXTT0=
EXTT1=
EXTT2=
EXTT3=
EXTT4=
EXTT5=
EXTT6=
EXTT7=
EXTT8=
PLAYORDER=
